<svg aria-hidden="true" style="position: absolute; width: 0; height: 0; overflow: hidden;" version="1.1" xmlns="http://www.w3.org/2000/svg" xmlns:xlink="http://www.w3.org/1999/xlink">
	<defs>
		<symbol id="icon_burger" viewBox="0 0 37 29">
			<path d="M35.458 26H1.542C.69 26 0 26.672 0 27.5S.69 29 1.542 29h33.916C36.31 29 37 28.328 37 27.5s-.69-1.5-1.542-1.5zM35.5 0h-21a1.5 1.5 0 000 3h21a1.5 1.5 0 000-3zm-.042 9H1.542C.69 9 0 9.672 0 10.5S.69 12 1.542 12h33.916C36.31 12 37 11.328 37 10.5S36.31 9 35.458 9zm.042 9h-21a1.5 1.5 0 000 3h21a1.5 1.5 0 000-3z">
			</path>
		</symbol>
		<symbol id="icon-email" viewBox="0 0 32 32">
			<path d="M26.667 0h-21.333c-2.934 0-5.334 2.4-5.334 5.334v21.332c0 2.936 2.4 5.334 5.334 5.334h21.333c2.934 0 5.333-2.398 5.333-5.334v-21.332c0-2.934-2.399-5.334-5.333-5.334zM26.667 4c0.25 0 0.486 0.073 0.688 0.198l-11.355 9.388-11.355-9.387c0.202-0.125 0.439-0.198 0.689-0.198h21.333zM5.334 28c-0.060 0-0.119-0.005-0.178-0.013l7.051-9.78-0.914-0.914-7.293 7.293v-19.098l12 14.512 12-14.512v19.098l-7.293-7.293-0.914 0.914 7.051 9.78c-0.058 0.008-0.117 0.013-0.177 0.013h-21.333z">
			</path>
		</symbol>
		<symbol id="icon-facebook" viewBox="0 0 32 32">
			<path d="M29 0h-26c-1.65 0-3 1.35-3 3v26c0 1.65 1.35 3 3 3h13v-14h-4v-4h4v-2c0-3.306 2.694-6 6-6h4v4h-4c-1.1 0-2 0.9-2 2v2h6l-1 4h-5v14h9c1.65 0 3-1.35 3-3v-26c0-1.65-1.35-3-3-3z">
			</path>
		</symbol>
		<symbol id="icon-instagram" viewBox="0 0 32 32">
			<path d="M16 2.881c4.275 0 4.781 0.019 6.462 0.094 1.563 0.069 2.406 0.331 2.969 0.55 0.744 0.288 1.281 0.638 1.837 1.194 0.563 0.563 0.906 1.094 1.2 1.838 0.219 0.563 0.481 1.412 0.55 2.969 0.075 1.688 0.094 2.194 0.094 6.463s-0.019 4.781-0.094 6.463c-0.069 1.563-0.331 2.406-0.55 2.969-0.288 0.744-0.637 1.281-1.194 1.837-0.563 0.563-1.094 0.906-1.837 1.2-0.563 0.219-1.413 0.481-2.969 0.55-1.688 0.075-2.194 0.094-6.463 0.094s-4.781-0.019-6.463-0.094c-1.563-0.069-2.406-0.331-2.969-0.55-0.744-0.288-1.281-0.637-1.838-1.194-0.563-0.563-0.906-1.094-1.2-1.837-0.219-0.563-0.481-1.413-0.55-2.969-0.075-1.688-0.094-2.194-0.094-6.463s0.019-4.781 0.094-6.463c0.069-1.563 0.331-2.406 0.55-2.969 0.288-0.744 0.638-1.281 1.194-1.838 0.563-0.563 1.094-0.906 1.838-1.2 0.563-0.219 1.412-0.481 2.969-0.55 1.681-0.075 2.188-0.094 6.463-0.094zM16 0c-4.344 0-4.887 0.019-6.594 0.094-1.7 0.075-2.869 0.35-3.881 0.744-1.056 0.412-1.95 0.956-2.837 1.85-0.894 0.888-1.438 1.781-1.85 2.831-0.394 1.019-0.669 2.181-0.744 3.881-0.075 1.713-0.094 2.256-0.094 6.6s0.019 4.887 0.094 6.594c0.075 1.7 0.35 2.869 0.744 3.881 0.413 1.056 0.956 1.95 1.85 2.837 0.887 0.887 1.781 1.438 2.831 1.844 1.019 0.394 2.181 0.669 3.881 0.744 1.706 0.075 2.25 0.094 6.594 0.094s4.888-0.019 6.594-0.094c1.7-0.075 2.869-0.35 3.881-0.744 1.050-0.406 1.944-0.956 2.831-1.844s1.438-1.781 1.844-2.831c0.394-1.019 0.669-2.181 0.744-3.881 0.075-1.706 0.094-2.25 0.094-6.594s-0.019-4.887-0.094-6.594c-0.075-1.7-0.35-2.869-0.744-3.881-0.394-1.063-0.938-1.956-1.831-2.844-0.887-0.887-1.781-1.438-2.831-1.844-1.019-0.394-2.181-0.669-3.881-0.744-1.712-0.081-2.256-0.1-6.6-0.1v0z">
			</path>
			<path d="M16 7.781c-4.537 0-8.219 3.681-8.219 8.219s3.681 8.219 8.219 8.219 8.219-3.681 8.219-8.219c0-4.537-3.681-8.219-8.219-8.219zM16 21.331c-2.944 0-5.331-2.387-5.331-5.331s2.387-5.331 5.331-5.331c2.944 0 5.331 2.387 5.331 5.331s-2.387 5.331-5.331 5.331z">
			</path>
			<path d="M26.462 7.456c0 1.060-0.859 1.919-1.919 1.919s-1.919-0.859-1.919-1.919c0-1.060 0.859-1.919 1.919-1.919s1.919 0.859 1.919 1.919z">
			</path>
		</symbol>
		<symbol id="icon-whatsapp" viewBox="0 0 32 32">
			<path d="M27.281 4.65c-2.994-3-6.975-4.65-11.219-4.65-8.738 0-15.85 7.112-15.85 15.856 0 2.794 0.731 5.525 2.119 7.925l-2.25 8.219 8.406-2.206c2.319 1.262 4.925 1.931 7.575 1.931h0.006c0 0 0 0 0 0 8.738 0 15.856-7.113 15.856-15.856 0-4.238-1.65-8.219-4.644-11.219zM16.069 29.050v0c-2.369 0-4.688-0.637-6.713-1.837l-0.481-0.288-4.987 1.306 1.331-4.863-0.313-0.5c-1.325-2.094-2.019-4.519-2.019-7.012 0-7.269 5.912-13.181 13.188-13.181 3.519 0 6.831 1.375 9.319 3.862 2.488 2.494 3.856 5.8 3.856 9.325-0.006 7.275-5.919 13.188-13.181 13.188zM23.294 19.175c-0.394-0.2-2.344-1.156-2.706-1.288s-0.625-0.2-0.894 0.2c-0.262 0.394-1.025 1.288-1.256 1.556-0.231 0.262-0.462 0.3-0.856 0.1s-1.675-0.619-3.188-1.969c-1.175-1.050-1.975-2.35-2.206-2.744s-0.025-0.613 0.175-0.806c0.181-0.175 0.394-0.463 0.594-0.694s0.262-0.394 0.394-0.662c0.131-0.262 0.069-0.494-0.031-0.694s-0.894-2.15-1.219-2.944c-0.319-0.775-0.65-0.669-0.894-0.681-0.231-0.012-0.494-0.012-0.756-0.012s-0.694 0.1-1.056 0.494c-0.363 0.394-1.387 1.356-1.387 3.306s1.419 3.831 1.619 4.1c0.2 0.262 2.794 4.269 6.769 5.981 0.944 0.406 1.681 0.65 2.256 0.837 0.95 0.3 1.813 0.256 2.494 0.156 0.762-0.113 2.344-0.956 2.675-1.881s0.331-1.719 0.231-1.881c-0.094-0.175-0.356-0.275-0.756-0.475z">
			</path>
		</symbol>
		<symbol id="icon-youtube" viewBox="0 0 32 32">
			<path d="M31.681 9.6c0 0-0.313-2.206-1.275-3.175-1.219-1.275-2.581-1.281-3.206-1.356-4.475-0.325-11.194-0.325-11.194-0.325h-0.012c0 0-6.719 0-11.194 0.325-0.625 0.075-1.987 0.081-3.206 1.356-0.963 0.969-1.269 3.175-1.269 3.175s-0.319 2.588-0.319 5.181v2.425c0 2.587 0.319 5.181 0.319 5.181s0.313 2.206 1.269 3.175c1.219 1.275 2.819 1.231 3.531 1.369 2.563 0.244 10.881 0.319 10.881 0.319s6.725-0.012 11.2-0.331c0.625-0.075 1.988-0.081 3.206-1.356 0.962-0.969 1.275-3.175 1.275-3.175s0.319-2.587 0.319-5.181v-2.425c-0.006-2.588-0.325-5.181-0.325-5.181zM12.694 20.15v-8.994l8.644 4.513-8.644 4.481z">
			</path>
		</symbol>
		<symbol id="icon-pinterest" viewBox="0 0 32 32">
			<path d="M16 2.138c-7.656 0-13.863 6.206-13.863 13.863 0 5.875 3.656 10.887 8.813 12.906-0.119-1.094-0.231-2.781 0.050-3.975 0.25-1.081 1.625-6.887 1.625-6.887s-0.412-0.831-0.412-2.056c0-1.925 1.119-3.369 2.506-3.369 1.181 0 1.756 0.887 1.756 1.95 0 1.188-0.756 2.969-1.15 4.613-0.331 1.381 0.688 2.506 2.050 2.506 2.462 0 4.356-2.6 4.356-6.35 0-3.319-2.387-5.638-5.787-5.638-3.944 0-6.256 2.956-6.256 6.019 0 1.194 0.456 2.469 1.031 3.163 0.113 0.137 0.131 0.256 0.094 0.4-0.106 0.438-0.338 1.381-0.387 1.575-0.063 0.256-0.2 0.306-0.463 0.188-1.731-0.806-2.813-3.337-2.813-5.369 0-4.375 3.175-8.387 9.156-8.387 4.806 0 8.544 3.425 8.544 8.006 0 4.775-3.012 8.625-7.194 8.625-1.406 0-2.725-0.731-3.175-1.594 0 0-0.694 2.644-0.863 3.294-0.313 1.206-1.156 2.712-1.725 3.631 1.3 0.4 2.675 0.619 4.106 0.619 7.656 0 13.863-6.206 13.863-13.863 0-7.662-6.206-13.869-13.863-13.869z">
			</path>
		</symbol>
		<symbol id="icon-close" viewBox="0 0 26 26">
			<path d="M14.4364 13.0001L25.7025 1.73384C26.0992 1.33718 26.0992 0.69409 25.7025 0.297489C25.3059 -0.0991123 24.6628 -0.0991631 24.2662 0.297489L13 11.5637L1.73383 0.297489C1.33718 -0.0991631 0.694089 -0.0991631 0.297488 0.297489C-0.099112 0.694141 -0.0991628 1.33723 0.297488 1.73384L11.5636 13L0.297488 24.2662C-0.0991628 24.6629 -0.0991628 25.306 0.297488 25.7026C0.495789 25.9009 0.755737 26 1.01569 26C1.27563 26 1.53553 25.9009 1.73388 25.7026L13 14.4364L24.2661 25.7026C24.4644 25.9009 24.7244 26 24.9843 26C25.2443 26 25.5042 25.9009 25.7025 25.7026C26.0992 25.3059 26.0992 24.6628 25.7025 24.2662L14.4364 13.0001Z">
			</path>
		</symbol>
		<symbol id="icon_step_1" viewBox="0 0 41 42">
			<path fill-rule="evenodd" clip-rule="evenodd" d="M38.543 35.013l-31.185-.012c-.614-.008-.945.038-1.762.404l-5.048 2.26a.908.908 0 00-.548.84.92.92 0 00.546.84c1.655.743 5.05 2.263 5.05 2.263.764.342 1.096.38 1.639.38l12.22.012a.602.602 0 000-1.205H7.978V39.11h26.538v1.686H22.438a.602.602 0 000 1.205h16.105A2.462 2.462 0 0041 39.54v-2.066a2.462 2.462 0 00-2.457-2.46zM3.485 37.67v1.672l-.578-.259-1.289-.577 1.867-.836zm1.201-.538v2.749c.439.196 1.91.843 2.09.885v-4.518c-.18.041-2.09.884-2.09.884zm3.29.772v-1.686h26.539v1.686H7.977zm30.567 2.89c.692 0 1.256-.562 1.256-1.255v-2.065c0-.692-.564-1.255-1.256-1.255h-2.827v4.576h2.827zM1.063 32l18.878-.002a.615.615 0 00.619-.611.615.615 0 00-.619-.611l-18.704.002V5.848h2.472V26.27c0 .554.457 1.005 1.018 1.005h25.64c.423 0 .791-.226.938-.576.146-.348.05-.738-.26-1.042L10.954 5.848h22.742v19.371c0 .571.47 1.035 1.048 1.035h2.726c1.265 0 2.294 1.015 2.294 2.261 0 1.247-1.029 2.26-2.294 2.26H22.78a.615.615 0 00-.618.612c0 .337.276.61.618.61h14.689c1.947 0 3.531-1.562 3.531-3.482V5.611c0-1.922-1.584-3.485-3.531-3.485h-2.726c-.578 0-1.048.463-1.048 1.033v1.467H9.714L5.347.32c-.31-.305-.705-.399-1.06-.252-.354.147-.581.511-.578.924v3.634H1.062C.478 4.626 0 5.097 0 5.676V30.95C0 31.529.477 32 1.063 32zM34.93 3.348h2.538c1.265 0 2.294 1.015 2.294 2.263V25.87a3.545 3.545 0 00-2.294-.838H34.93V3.348zm-5.234 22.707L4.945 1.65v24.405h2.653v-.858c0-.338.277-.611.618-.611.342 0 .618.273.618.61v.858h2.655V24.39c0-.337.277-.61.618-.61.342 0 .619.273.619.61v1.666h2.652v-.858c0-.338.277-.611.618-.611.342 0 .619.273.619.61v.858h2.655V24.39c0-.337.277-.61.618-.61.341 0 .618.273.618.61v1.666h2.653v-.858c0-.338.277-.611.618-.611.342 0 .618.273.618.61v.858h5.302z">
			</path>
			<path fill-rule="evenodd" clip-rule="evenodd" d="M16.688 22h-6.2c-.44 0-.726-.293-.726-.746v-6.348c0-.24 0-.686.403-.856.396-.168.682.126.89.341l6.137 6.283c.209.214.494.507.33.913-.166.413-.6.413-.834.413zm-.907-1.148l-4.9-5.017v5.017h4.9z">
			</path>
		</symbol>
		<symbol id="icon_step_2" viewBox="0 0 38 26">
			<path fill-rule="evenodd" clip-rule="evenodd" d="M23.67 19.13h13.514c.45 0 .816.397.816.886v5.38c0 .334-.25.604-.557.604-.307 0-.556-.27-.556-.604v-1.963H30.91c-.307 0-.556-.27-.556-.604 0-.334.249-.605.556-.605h5.977v-1.886H23.67v1.886h4.974c.308 0 .557.271.557.605 0 .334-.25.604-.557.604H23.67v1.107c0 .609-.458 1.104-1.02 1.104H11.835C5.309 25.644 0 19.892 0 12.822 0 5.752 5.31 0 11.835 0c5.213 0 9.649 3.67 11.223 8.751h2.012c.485 0 .879.385.98.957l.762 4.297c.065.362-.001.697-.187.942a.936.936 0 01-.767.365H23.67v3.818zm2.026-5.027l-.735-4.143h-1.589c.195.92.298 1.879.298 2.862v1.281h2.026zm-24.568-.676h2.144c.15 0 .355-.015.526-.202.184-.204.179-.446.176-.575a2.32 2.32 0 010-.143 8.957 8.957 0 011.374-4.506.638.638 0 00-.142-.84.53.53 0 00-.774.154 10.216 10.216 0 00-1.56 4.903H1.128c.281-5.924 4.68-10.69 10.15-10.994v1.89c-1.753.115-3.417.777-4.826 1.921a.64.64 0 00-.113.846.526.526 0 00.78.122c1.286-1.044 2.815-1.63 4.423-1.693.053-.002.095-.001.128 0h.005c.122.002.344.006.53-.193.19-.204.188-.446.187-.622v-2.27c5.654.314 10.165 5.396 10.165 11.597v8.514H12.261c-.543 0-.984.479-.984 1.067v2.017c-5.47-.305-9.869-5.07-10.15-10.994zm11.264 11.009h10.165v-1.891H12.392v1.89z">
			</path>
			<path fill-rule="evenodd" clip-rule="evenodd" d="M17.198 19.933h-5.322c-3.493 0-6.334-2.916-6.334-6.5s2.841-6.5 6.334-6.5c3.492 0 6.332 2.916 6.332 6.5v5.46c0 .574-.453 1.04-1.01 1.04zm-.115-6.5c0-2.946-2.336-5.342-5.207-5.342-2.872 0-5.209 2.396-5.209 5.341 0 2.947 2.337 5.344 5.209 5.344h5.207v-5.344z">
			</path>
			<path fill-rule="evenodd" clip-rule="evenodd" d="M13.899 15.6H9.852c-.63 0-1.143-.489-1.143-1.09v-2.156c0-.6.512-1.087 1.143-1.087h4.047c.63 0 1.143.488 1.143 1.087v2.156c0 .601-.513 1.09-1.143 1.09zm-.129-3.123H9.98v1.912h3.79v-1.912z">
			</path>
		</symbol>
		<symbol id="icon_step_3" viewBox="0 0 38 34">
			<path fill-rule="evenodd" clip-rule="evenodd" d="M35.742 9.63h.588c.92 0 1.67.838 1.67 1.867V23.04c0 1.715-1.248 3.11-2.783 3.11h-1.734v6.102c0 .964-.701 1.748-1.564 1.748-.816 0-1.502-.713-1.56-1.624l-.395-6.225H13.805c-.307 0-.556-.28-.556-.623 0-.343.249-.622.556-.622h21.412c.92 0 1.67-.837 1.67-1.867V11.497c0-.343-.25-.622-.557-.622h-2.29c-.269 0-.493.213-.545.497a.686.686 0 00-.012.125v2.98h.897c.748 0 1.356.68 1.356 1.516v3.592c0 .837-.608 1.517-1.356 1.517H3.62c-.748 0-1.356-.68-1.356-1.517v-3.592c0-.836.608-1.517 1.356-1.517h.897v-2.98a.694.694 0 00-.012-.124c-.052-.284-.276-.497-.545-.497H1.67c-.307 0-.557.279-.557.622v11.542c0 1.03.75 1.867 1.67 1.867h8.425c.307 0 .556.279.556.622 0 .344-.249.623-.556.623H8.036l-.396 6.225C7.582 33.286 6.897 34 6.08 34c-.862 0-1.563-.784-1.563-1.748v-6.101H2.783C1.25 26.15 0 24.755 0 23.04V11.497c0-1.03.75-1.867 1.67-1.867h.588V2.862C2.258 1.284 3.408 0 4.82 0h12.177c.811 0 1.535.424 2.004 1.084C19.47.424 20.193 0 21.004 0H33.18c1.25 0 2.311.998 2.523 2.373.053.339-.15.66-.454.72-.303.057-.59-.17-.643-.508-.12-.777-.72-1.34-1.426-1.34H21.004c-.798 0-1.447.725-1.447 1.617v11.639l.01-.002.015-.004c.095-.022.195-.022 5.143-.02h.004l7.64.001v-2.98c0-1.028.75-1.866 1.67-1.866h.59V5.38c0-.343.248-.622.556-.622.307 0 .557.279.557.623v4.25zM6.675 32.286l.335-6.164H5.903v6.128c0 .28.173.506.386.506.202 0 .372-.206.386-.47zM34.68 19.63c0 .15-.11.272-.245.272H19.553V16.03c0-.15.11-.273.245-.273h14.637c.135 0 .245.122.245.273v3.6zM3.32 9.637h.591c.924 0 1.676.838 1.676 1.869v2.982l7.69-.002h.004c4.975-.001 5.06-.001 5.139.02l.027.006V2.863c0-.893-.652-1.62-1.453-1.62H4.773c-.801 0-1.453.727-1.453 1.62v6.774zm0 9.993v-3.601c0-.15.11-.273.245-.273h14.637c.135 0 .245.122.245.273v3.873H3.565c-.135 0-.245-.122-.245-.272zm28.39 13.126c.214 0 .387-.227.387-.506v-6.128H30.99l.335 6.164c.015.264.184.47.386.47z">
			</path>
		</symbol>
		<symbol id="icon-play" viewBox="0 0 29 33">
			<path fill-rule="evenodd" clip-rule="evenodd" d="M28.5 15.634a1 1 0 010 1.732L2.25 32.522a1 1 0 01-1.5-.867V1.345a1 1 0 011.5-.866L28.5 15.634z">
			</path>
		</symbol>
		<symbol id="icon-search" viewBox="0 0 17 17">
			<path fill-rule="evenodd" clip-rule="evenodd" d="M11.958 10.957l4.834 4.834a.708.708 0 11-1.001 1.001l-4.835-4.834a6.697 6.697 0 01-4.227 1.5A6.737 6.737 0 010 6.73C0 3.02 3.019 0 6.73 0c3.71 0 6.728 3.019 6.728 6.73 0 1.6-.564 3.07-1.5 4.226zM1.417 6.729a5.318 5.318 0 005.312 5.313 5.318 5.318 0 005.312-5.313A5.318 5.318 0 006.73 1.417a5.318 5.318 0 00-5.312 5.312z">
			</path>
		</symbol>
	</defs>
</svg>
